<svg width="50" height="50" viewBox="0 0 50 50" fill="none" xmlns="http://www.w3.org/2000/svg">
<rect width="50" height="50" rx="6" fill="#34C36D"/>
<path d="M37.8398 35.9073L31.288 29.0931C32.9726 27.0906 33.8956 24.571 33.8956 21.9479C33.8956 15.8195 28.9095 10.8334 22.7811 10.8334C16.6526 10.8334 11.6665 15.8195 11.6665 21.9479C11.6665 28.0764 16.6526 33.0625 22.7811 33.0625C25.0818 33.0625 27.2742 32.3685 29.1487 31.0512L35.7503 37.9171C36.0262 38.2037 36.3974 38.3617 36.7951 38.3617C37.1715 38.3617 37.5286 38.2182 37.7997 37.9572C38.3757 37.403 38.3941 36.4838 37.8398 35.9073ZM22.7811 13.7328C27.311 13.7328 30.9962 17.418 30.9962 21.9479C30.9962 26.4778 27.311 30.163 22.7811 30.163C18.2512 30.163 14.566 26.4778 14.566 21.9479C14.566 17.418 18.2512 13.7328 22.7811 13.7328Z" fill="white"/>
</svg>
